<svg width="183" height="37" viewBox="0 0 183 37" fill="none" xmlns="http://www.w3.org/2000/svg">
<path d="M27.6 36L25.05 28.8H11.35L8.8 36H0.5L13.85 0.549997H23L36.2 36H27.6ZM18.3 9.35L13.95 21.6H22.55L18.3 9.35ZM59.6262 11.15L50.1762 36H42.5262L32.3262 11.15H40.5762L46.3262 26.6L51.6262 11.15H59.6262ZM66.0141 20.6H75.9641C75.8641 18.7 74.5641 16.4 70.9641 16.4C67.7641 16.4 66.1641 18.75 66.0141 20.6ZM76.5141 27.05L82.8641 28.85C81.6641 33.15 77.7141 36.75 71.4141 36.75C64.5641 36.75 58.4641 31.85 58.4641 23.5C58.4641 15.5 64.4141 10.4 70.8641 10.4C78.5641 10.4 83.3141 15.15 83.3141 23.15C83.3141 24.2 83.2141 25.35 83.1641 25.5H65.8641C66.0141 28.3 68.5641 30.3 71.5141 30.3C74.2641 30.3 75.8141 29 76.5141 27.05ZM93.2938 21.75V36H85.6938V11.15H93.0438V14C94.3938 11.65 97.4438 10.5 99.9938 10.5C106.244 10.5 109.044 14.95 109.044 20.4V36H101.444V21.7C101.444 19.25 100.144 17.4 97.3938 17.4C94.8938 17.4 93.2938 19.25 93.2938 21.75ZM122.03 3.9V11.15H126.88V17.8H122.03V27.1C122.03 29.15 123.13 29.7 124.78 29.7C125.58 29.7 126.33 29.55 126.78 29.45V35.75C126.48 35.9 125.23 36.45 122.83 36.45C117.68 36.45 114.53 33.4 114.53 28.45V17.8H110.13V11.15H111.38C113.98 11.15 115.23 9.4 115.23 7.1V3.9H122.03ZM145.273 11.15V18.65C144.423 18.45 143.623 18.4 142.873 18.4C139.823 18.4 137.073 20.2 137.073 25.15V36H129.473V11.15H136.823V14.5C138.123 11.7 141.273 10.9 143.273 10.9C144.023 10.9 144.773 11 145.273 11.15ZM146.079 29.15C146.079 24.75 149.329 22.25 153.429 21.65L159.279 20.75C160.629 20.55 161.079 19.9 161.079 19.05C161.079 17.6 159.829 16.35 157.429 16.35C154.779 16.35 153.329 18.15 153.179 20L146.579 18.65C146.879 15.1 150.179 10.4 157.479 10.4C165.529 10.4 168.479 14.9 168.479 20V32.15C168.479 34.1 168.729 35.75 168.779 36H161.929C161.879 35.8 161.679 34.9 161.679 33.2C160.379 35.3 157.979 36.7 154.679 36.7C149.229 36.7 146.079 33.1 146.079 29.15ZM156.529 31.2C158.779 31.2 161.079 30.1 161.079 26.25V25.15L156.379 25.9C154.779 26.15 153.579 26.9 153.579 28.65C153.579 29.95 154.429 31.2 156.529 31.2ZM172.073 31.3C172.073 28.5 174.373 26.2 177.173 26.2C179.973 26.2 182.323 28.5 182.323 31.3C182.323 34.05 179.973 36.45 177.173 36.45C174.373 36.45 172.073 34.05 172.073 31.3Z" fill="#1E1E1E"/>
</svg>
