<svg width="80" height="80" viewBox="0 0 80 80" fill="none" xmlns="http://www.w3.org/2000/svg">
<path fill-rule="evenodd" clip-rule="evenodd" d="M45.9987 44.1166C45.932 44.1832 45.8987 44.2832 45.832 44.3499H45.332V32.9499H58.8987L45.9987 44.1166ZM46.6653 58.5499H38.9653C37.5987 58.5499 36.4653 57.4499 36.4653 56.0499C36.4653 54.6833 37.5987 53.5499 38.9653 53.5499H46.6653C48.032 53.5499 49.1653 54.6833 49.1653 56.0499C49.1653 57.4499 48.032 58.5499 46.6653 58.5499ZM26.6988 32.9499H40.332V44.3499H39.7653C39.6987 44.2832 39.6987 44.2166 39.632 44.1833L26.6988 32.9499ZM68.3987 26.5166C66.4653 14.0166 55.4987 4.58325 42.832 4.58325C30.1654 4.58325 19.1988 14.0166 17.2654 26.5166C16.8321 29.5166 18.1654 32.5833 20.4988 34.1833L32.4321 44.5499C27.5988 45.3166 24.3654 49.2499 24.3654 54.6166L24.3988 65.2499C24.4321 71.2499 28.4654 75.4166 34.232 75.4166L51.4653 75.3832C54.2653 75.3832 56.6653 74.4499 58.432 72.6832C60.2653 70.8499 61.2653 68.1832 61.2653 65.1499L61.232 54.5166C61.1987 49.1832 57.9987 45.2832 53.1987 44.4832L64.932 34.3499C67.4987 32.6166 68.832 29.5166 68.3987 26.5166Z" fill="url(#paint0_linear_80_710)"/>
<defs>
<linearGradient id="paint0_linear_80_710" x1="17" y1="5" x2="68" y2="75" gradientUnits="userSpaceOnUse">
<stop stop-color="#6036D6"/>
<stop offset="1" stop-color="#9D55C4"/>
</linearGradient>
</defs>
</svg>
