<svg width="80" height="80" viewBox="0 0 80 80" fill="none" xmlns="http://www.w3.org/2000/svg">
<path fill-rule="evenodd" clip-rule="evenodd" d="M66.467 29.3359H57.9237C57.3713 29.3359 56.9237 29.7837 56.9237 30.3359V71.6693C56.9237 72.2217 57.3713 72.6693 57.9237 72.6693H66.467C69.8337 72.6693 72.5737 69.9327 72.5737 66.5693V51.0027V35.436C72.5737 32.0726 69.8337 29.3359 66.467 29.3359Z" fill="url(#paint0_linear_74_299)"/>
<path fill-rule="evenodd" clip-rule="evenodd" d="M38.7277 35.826C38.571 35.856 38.4143 35.8693 38.2577 35.8693C37.081 35.8693 36.031 35.036 35.8043 33.836C35.5443 32.4826 36.4343 31.1559 37.791 30.8959C39.1277 30.6359 40.451 31.5093 40.711 32.8693L40.7177 32.9026C40.9743 34.2593 40.0843 35.566 38.7277 35.826ZM35.811 46.0593C35.5377 44.706 36.4143 43.3727 37.7677 43.1027C39.1277 42.8327 40.4343 43.6927 40.7043 45.046L40.711 45.0793C40.9843 46.4327 40.1043 47.7493 38.751 48.0193C38.5877 48.0527 38.421 48.0693 38.2577 48.0693C37.091 48.0693 36.0477 47.246 35.811 46.0593ZM38.7277 59.9927C38.571 60.0227 38.4143 60.036 38.2577 60.036C37.081 60.036 36.031 59.2027 35.8043 58.0027C35.5443 56.6493 36.4343 55.3227 37.791 55.0627C39.1277 54.7927 40.451 55.6793 40.711 57.036L40.7177 57.0693C40.9743 58.426 40.0843 59.7327 38.7277 59.9927ZM25.3878 35.826C25.2311 35.856 25.0745 35.8693 24.9178 35.8693C23.7411 35.8693 22.6911 35.036 22.4645 33.836C22.2045 32.4826 23.0945 31.1559 24.4511 30.8959C25.7878 30.6359 27.1111 31.5093 27.3711 32.8693L27.3778 32.9026C27.6345 34.2593 26.7445 35.566 25.3878 35.826ZM22.4711 46.0593C22.1978 44.706 23.0745 43.3727 24.4278 43.1027C25.7778 42.8327 27.0945 43.6927 27.3645 45.046L27.3711 45.0793C27.6445 46.4327 26.7645 47.7493 25.4111 48.0193C25.2478 48.0527 25.0811 48.0693 24.9178 48.0693C23.7511 48.0693 22.7078 47.246 22.4711 46.0593ZM25.3878 59.9927C25.2311 60.0227 25.0745 60.036 24.9178 60.036C23.7411 60.036 22.6911 59.2027 22.4645 58.0027C22.2045 56.6493 23.0945 55.3227 24.4511 55.0627C25.7878 54.7927 27.1111 55.6793 27.3711 57.036L27.3778 57.0693C27.6345 58.426 26.7445 59.7327 25.3878 59.9927ZM52.591 29.3601C52.591 29.351 52.5877 29.3423 52.581 29.3359C52.5747 29.3295 52.571 29.3209 52.571 29.3118V15.4359C52.571 12.0726 49.8343 9.33594 46.4677 9.33594H35.3443C31.9778 9.33594 29.2378 12.0726 29.2378 15.4359V18.0026C29.2378 18.5549 28.7901 19.0026 28.2378 19.0026H16.6678C13.3011 19.0026 10.5645 21.7393 10.5645 25.1026V66.5693C10.5645 69.9327 13.3011 72.6693 16.6678 72.6693H51.591C52.1433 72.6693 52.591 72.2217 52.591 71.6693V29.3601Z" fill="url(#paint1_linear_74_299)"/>
<defs>
<linearGradient id="paint0_linear_74_299" x1="3" y1="10" x2="73" y2="73" gradientUnits="userSpaceOnUse">
<stop stop-color="#6036D6"/>
<stop offset="1" stop-color="#9D55C4"/>
</linearGradient>
<linearGradient id="paint1_linear_74_299" x1="7.5" y1="9" x2="71" y2="73" gradientUnits="userSpaceOnUse">
<stop stop-color="#6036D6"/>
<stop offset="1" stop-color="#9D55C4"/>
</linearGradient>
</defs>
</svg>
