<svg width="80" height="80" viewBox="0 0 80 80" fill="none" xmlns="http://www.w3.org/2000/svg">
<g clip-path="url(#clip0_74_325)">
<path fill-rule="evenodd" clip-rule="evenodd" d="M66.8323 8.94422C63.8457 7.72089 60.5757 8.36423 58.289 10.6542L49.408 19.5353C49.0957 19.8477 49.1687 20.3723 49.5297 20.6269C51.6623 22.1312 53.069 24.5892 53.069 27.3976V33.2131C53.069 33.4873 53.238 33.731 53.4873 33.845C54.4163 34.269 55.284 34.8703 56.0357 35.651C59.229 38.9643 59.1257 44.241 55.8123 47.4343L50.529 52.5177C50.4523 52.5977 50.3723 52.671 50.2857 52.7477V52.751L50.279 52.7543C49.679 53.291 49.0157 53.7277 48.3157 54.0577C47.2323 54.5743 46.019 54.8643 44.7357 54.8643C43.4523 54.8643 42.239 54.5743 41.1557 54.0577C40.4557 53.7277 39.7957 53.291 39.1923 52.7543L39.1857 52.751V52.7477C39.1023 52.671 39.019 52.5977 38.9423 52.5177L36.484 50.1537C36.1833 49.8647 35.6947 49.921 35.4337 50.246C33.907 52.146 31.5712 53.3643 28.9456 53.3643C25.696 53.3643 22.9075 51.4953 21.5373 48.7797C21.3167 48.3427 20.7228 48.2103 20.3766 48.5567L10.6423 58.291C8.35893 60.581 7.71227 63.861 8.94893 66.841C10.1856 69.8177 12.9589 71.6643 16.1856 71.6643H63.8357C68.1523 71.6643 71.669 68.1543 71.669 63.8343V16.1642C71.669 12.9442 69.8157 10.1776 66.8323 8.94422Z" fill="url(#paint0_linear_74_325)"/>
<path fill-rule="evenodd" clip-rule="evenodd" d="M43.0007 48.3291C43.0173 48.3491 43.034 48.3657 43.054 48.3824L43.0607 48.3891H43.064L43.0673 48.3957C43.2473 48.5557 43.4473 48.6857 43.654 48.7891C43.984 48.9457 44.3473 49.0324 44.7373 49.0324C45.124 49.0324 45.4873 48.9457 45.8173 48.7891C46.024 48.6857 46.224 48.5557 46.404 48.3957L46.4073 48.3891L46.414 48.3857L46.4173 48.3824C46.4373 48.3657 46.454 48.3491 46.4707 48.3291L51.7673 43.2324C52.7607 42.2757 52.7907 40.6924 51.8307 39.6957C50.8707 38.7024 49.294 38.6757 48.2973 39.6324L47.2373 40.6524V27.3992C47.2373 26.0192 46.1173 24.8992 44.7373 24.8992C43.354 24.8992 42.2373 26.0192 42.2373 27.3992V40.6524L41.174 39.6324C40.1807 38.6757 38.604 38.7024 37.6407 39.6957C36.6807 40.6924 36.7107 42.2757 37.704 43.2324L43.0007 48.3291Z" fill="url(#paint1_linear_74_325)"/>
<path fill-rule="evenodd" clip-rule="evenodd" d="M25.3805 32.7658L26.4438 31.7392V45.0324C26.4438 46.4124 27.5638 47.5324 28.9438 47.5324C30.3238 47.5324 31.4438 46.4124 31.4438 45.0324V31.7458L32.5038 32.7658C33.497 33.7257 35.077 33.6924 36.037 32.6992C36.9937 31.7058 36.967 30.1225 35.9737 29.1658L30.7538 24.1392C30.3005 23.6625 29.6571 23.3658 28.9438 23.3658C28.4838 23.3358 27.6938 23.5992 27.2071 24.0658L21.9105 29.1658C20.9171 30.1225 20.8871 31.7058 21.8438 32.6992C22.8071 33.6924 24.3871 33.7257 25.3805 32.7658Z" fill="url(#paint2_linear_74_325)"/>
</g>
<defs>
<linearGradient id="paint0_linear_74_325" x1="6.5" y1="6" x2="72" y2="72" gradientUnits="userSpaceOnUse">
<stop stop-color="#6036D6"/>
<stop offset="1" stop-color="#9D55C4"/>
</linearGradient>
<linearGradient id="paint1_linear_74_325" x1="9.5" y1="8" x2="69.5" y2="72.5" gradientUnits="userSpaceOnUse">
<stop stop-color="#6036D6"/>
<stop offset="1" stop-color="#9D55C4"/>
</linearGradient>
<linearGradient id="paint2_linear_74_325" x1="14" y1="12.5" x2="76.5" y2="74.5" gradientUnits="userSpaceOnUse">
<stop stop-color="#6036D6"/>
<stop offset="1" stop-color="#9D55C4"/>
</linearGradient>
<clipPath id="clip0_74_325">
<rect width="80" height="80" fill="white"/>
</clipPath>
</defs>
</svg>
