<svg width="80" height="80" viewBox="0 0 80 80" fill="none" xmlns="http://www.w3.org/2000/svg">
<path fill-rule="evenodd" clip-rule="evenodd" d="M61.0067 47.1933L48.3133 58.1266C47.37 58.9399 45.97 58.9333 45.0333 58.1099L38.02 51.9433L28.3967 59.0732C27.95 59.4066 27.4267 59.5666 26.91 59.5666C26.1467 59.5666 25.39 59.2166 24.9 58.5532C24.0767 57.4433 24.31 55.8766 25.42 55.0566L36.6667 46.7233C37.6133 46.0199 38.9233 46.0799 39.8067 46.8532L46.7 52.9199L57.7433 43.4033C58.7867 42.5066 60.3667 42.6133 61.27 43.6666C62.1733 44.7133 62.0533 46.2899 61.0067 47.1933ZM21.4667 35.2999C21.4667 33.9199 22.5867 32.7999 23.9667 32.7999H37.1167C38.4967 32.7999 39.6167 33.9199 39.6167 35.2999C39.6167 36.6799 38.4967 37.7999 37.1167 37.7999H23.9667C22.5867 37.7999 21.4667 36.6799 21.4667 35.2999ZM23.9667 22.7999H32.2433C33.6233 22.7999 34.7433 23.9199 34.7433 25.2999C34.7433 26.6799 33.6233 27.7999 32.2433 27.7999H23.9667C22.5867 27.7999 21.4667 26.6799 21.4667 25.2999C21.4667 23.9199 22.5867 22.7999 23.9667 22.7999ZM53.4467 20.9333C57.8867 20.9333 61.5 24.5366 61.5 28.9633C61.5 33.4133 57.8867 37.0333 53.4467 37.0333C49.0067 37.0333 45.3967 33.4133 45.3967 28.9633C45.3967 24.5366 49.0067 20.9333 53.4467 20.9333ZM55.7267 8.33325H27.61C17.0767 8.33325 10 15.7399 10 26.7666V53.2333C10 64.2566 17.0767 71.6666 27.61 71.6666H55.7233C66.2567 71.6666 73.3333 64.2566 73.3333 53.2333V26.7666C73.3333 15.7399 66.2567 8.33325 55.7267 8.33325Z" fill="url(#paint0_linear_80_712)"/>
<path fill-rule="evenodd" clip-rule="evenodd" d="M53.448 32.0334C55.1313 32.0334 56.5013 30.6567 56.5013 28.9633C56.5013 27.2933 55.1313 25.9333 53.448 25.9333C51.7647 25.9333 50.398 27.2933 50.398 28.9633C50.398 30.6567 51.7647 32.0334 53.448 32.0334Z" fill="url(#paint1_linear_80_712)"/>
<defs>
<linearGradient id="paint0_linear_80_712" x1="10" y1="8" x2="73" y2="72" gradientUnits="userSpaceOnUse">
<stop stop-color="#6036D6"/>
<stop offset="1" stop-color="#9D55C4"/>
</linearGradient>
<linearGradient id="paint1_linear_80_712" x1="53.4497" y1="25.9333" x2="53.4497" y2="32.0334" gradientUnits="userSpaceOnUse">
<stop stop-color="#6036D6"/>
<stop offset="1" stop-color="#9D55C4"/>
</linearGradient>
</defs>
</svg>
