<svg width="80" height="80" viewBox="0 0 80 80" fill="none" xmlns="http://www.w3.org/2000/svg">
<path d="M72.483 31.3336C72.483 34.8002 70.5497 37.9002 67.4497 39.4336L45.6163 50.0669C43.8163 50.9336 41.9163 51.3669 39.983 51.3669C38.021 51.3669 36.0987 50.9416 34.3497 50.0669L20.4829 43.3002C20.4128 43.2769 20.359 43.2372 20.2987 43.1926C20.273 43.1736 20.2461 43.1536 20.2163 43.1336L15.6496 40.9002C15.4497 41.3002 15.3497 41.7669 15.3497 42.2336V55.8336C15.3497 57.2336 14.2164 58.3336 12.8497 58.3336C11.4831 58.3336 10.3497 57.2336 10.3497 55.8336V42.2336C10.3497 40.9336 10.6497 39.7002 11.1831 38.5669C11.6164 38.8669 12.0831 39.1669 12.5831 39.4002L15.6496 40.9002C16.083 39.8669 17.0497 39.0669 18.2496 38.8669L30.7496 36.9002C32.1163 36.6669 33.0496 35.4002 32.8496 34.0336C32.6163 32.667 31.3163 31.7336 29.9829 31.9336L17.4829 33.9002C14.6496 34.3669 12.3497 36.1669 11.1831 38.5669C8.88307 36.9002 7.51627 34.2336 7.51627 31.3003C7.51627 27.8336 9.4496 24.7336 12.5829 23.2003L34.3497 12.5336C37.9497 10.8003 42.0497 10.8003 45.6163 12.5336L67.4163 23.2003C70.5497 24.7336 72.483 27.867 72.483 31.3336Z" fill="url(#paint0_linear_74_305)"/>
<path d="M58.079 48.632C58.7433 48.3094 59.5163 48.793 59.5163 49.5314V57.7C59.5163 61.2334 57.4497 64.4 54.2163 65.7667C49.483 67.7667 44.683 68.7667 39.8497 68.7667C35.0163 68.7667 30.1497 67.7667 25.283 65.7667C22.0497 64.4 19.9164 61.2 19.9164 57.6334V49.236C19.9164 48.4964 20.6916 48.0127 21.356 48.338L32.5164 53.8C34.7473 55.1387 37.418 55.5667 39.983 55.5667C42.5497 55.5667 45.083 54.9667 47.4497 53.8L58.079 48.632Z" fill="url(#paint1_linear_74_305)"/>
<defs>
<linearGradient id="paint0_linear_74_305" x1="8" y1="3.5" x2="72" y2="71" gradientUnits="userSpaceOnUse">
<stop stop-color="#6036D6"/>
<stop offset="1" stop-color="#9D55C4"/>
</linearGradient>
<linearGradient id="paint1_linear_74_305" x1="3.5" y1="14.5" x2="70.5" y2="71.5" gradientUnits="userSpaceOnUse">
<stop stop-color="#6036D6"/>
<stop offset="1" stop-color="#9D55C4"/>
</linearGradient>
</defs>
</svg>
