<svg width="80" height="80" viewBox="0 0 80 80" fill="none" xmlns="http://www.w3.org/2000/svg">
<path fill-rule="evenodd" clip-rule="evenodd" d="M58.408 38.0237C56.6313 38.0237 55.1813 36.5771 55.1813 34.8004C55.1813 33.0206 56.6313 31.5739 58.408 31.5739C60.1847 31.5739 61.6347 33.0206 61.6347 34.8004C61.6347 36.5771 60.1847 38.0237 58.408 38.0237ZM46.6713 25.9339C44.8913 25.9339 43.4447 24.4872 43.4447 22.7106C43.4447 20.9306 44.8913 19.4839 46.6713 19.4839C48.448 19.4839 49.8947 20.9306 49.8947 22.7106C49.8947 24.4872 48.448 25.9339 46.6713 25.9339ZM31.2779 29.5739C29.5013 29.5739 28.0546 28.1239 28.0546 26.3472C28.0546 24.5672 29.5013 23.1239 31.2779 23.1239C33.0579 23.1239 34.5047 24.5672 34.5047 26.3472C34.5047 28.1239 33.0579 29.5739 31.2779 29.5739ZM22.7946 43.2537C21.0179 43.2537 19.5713 41.8071 19.5713 40.0271C19.5713 38.2471 21.0179 36.8004 22.7946 36.8004C24.5746 36.8004 26.0179 38.2471 26.0179 40.0271C26.0179 41.8071 24.5746 43.2537 22.7946 43.2537ZM65.5947 19.8806C60.2213 13.4306 51.7347 9.86391 41.7013 9.84058H41.608C24.5946 9.84058 12.0646 20.5072 9.6746 37.0337C8.31793 46.3971 11.3946 55.8971 18.1213 63.0971C24.1679 69.5737 32.2779 73.1737 40.6647 73.1737C41.3947 73.1737 42.1313 73.1471 42.868 73.0937C45.7913 72.8704 48.0547 71.6571 49.2347 69.6737C50.398 67.7237 50.4147 65.2537 49.2813 62.7237C48.5813 61.1571 47.928 58.9571 48.8313 57.3771C49.658 55.9304 51.588 55.4304 53.0613 55.2637C59.9447 54.4971 65.5347 51.4837 68.7913 46.7737C74.5247 38.5071 71.5247 26.9839 65.5947 19.8806Z" fill="url(#paint0_linear_74_314)"/>
<defs>
<linearGradient id="paint0_linear_74_314" x1="9" y1="7" x2="72" y2="73" gradientUnits="userSpaceOnUse">
<stop stop-color="#6036D6"/>
<stop offset="1" stop-color="#9D55C4"/>
</linearGradient>
</defs>
</svg>
