<svg width="80" height="80" viewBox="0 0 80 80" fill="none" xmlns="http://www.w3.org/2000/svg">
<path d="M59.7283 47.7337C58.865 48.5704 58.4683 49.7804 58.665 50.9671L61.6283 67.3671C61.8783 68.7571 61.2917 70.1637 60.1283 70.9671C58.9883 71.8004 57.4717 71.9004 56.2283 71.2337L41.465 63.5337C40.9517 63.2604 40.3817 63.1137 39.7983 63.0971H38.895C38.5817 63.1437 38.275 63.2437 37.995 63.3971L23.2283 71.1337C22.4983 71.5004 21.6717 71.6304 20.8617 71.5004C18.8883 71.1271 17.5717 69.2471 17.895 67.2637L20.8617 50.8637C21.0583 49.6671 20.6617 48.4504 19.7983 47.6004L7.76167 35.9337C6.755 34.9571 6.405 33.4904 6.865 32.1671C7.31167 30.8471 8.45167 29.8837 9.82833 29.6671L26.395 27.2637C27.655 27.1337 28.7617 26.3671 29.3283 25.2337L36.6283 10.2671C36.8017 9.93374 37.025 9.62707 37.295 9.36707L37.595 9.13374C37.7517 8.96041 37.9317 8.81707 38.1317 8.70041L38.495 8.56707L39.0617 8.33374H40.465C41.7183 8.46374 42.8217 9.21374 43.3983 10.3337L50.795 25.2337C51.3283 26.3237 52.365 27.0804 53.5617 27.2637L70.1283 29.6671C71.5283 29.8671 72.6983 30.8337 73.1617 32.1671C73.5983 33.5037 73.2217 34.9704 72.195 35.9337L59.7283 47.7337Z" fill="url(#paint0_linear_80_706)"/>
<defs>
<linearGradient id="paint0_linear_80_706" x1="9" y1="13" x2="70" y2="72" gradientUnits="userSpaceOnUse">
<stop stop-color="#5E36D6"/>
<stop offset="1" stop-color="#9D55C4"/>
</linearGradient>
</defs>
</svg>
