<svg width="80" height="80" viewBox="0 0 80 80" fill="none" xmlns="http://www.w3.org/2000/svg">
<path fill-rule="evenodd" clip-rule="evenodd" d="M53.4067 53.1366H42.3933C41.0133 53.1366 39.8933 52.0166 39.8933 50.6366C39.8933 49.2566 41.0133 48.1366 42.3933 48.1366H53.4067C54.7867 48.1366 55.9067 49.2566 55.9067 50.6366C55.9067 52.0166 54.7867 53.1366 53.4067 53.1366ZM36.27 42.5833L28.3633 50.4899C27.8767 50.9799 27.2367 51.2233 26.5967 51.2233C25.9567 51.2233 25.3167 50.9799 24.83 50.4899C23.8533 49.5133 23.8533 47.9299 24.83 46.9566L30.97 40.8166L24.83 34.6766C23.8533 33.6999 23.8533 32.1166 24.83 31.1399C25.8067 30.1633 27.3867 30.1633 28.3633 31.1399L36.27 39.0466C37.2467 40.0233 37.2467 41.6066 36.27 42.5833ZM54.06 8.33325H25.9433C15.41 8.33325 8.33334 15.7333 8.33334 26.7533V53.2433C8.33334 64.2633 15.41 71.6666 25.9433 71.6666H54.0567C64.59 71.6666 71.6667 64.2633 71.6667 53.2433V26.7533C71.6667 15.7333 64.59 8.33325 54.06 8.33325Z" fill="url(#paint0_linear_80_633)"/>
<defs>
<linearGradient id="paint0_linear_80_633" x1="8" y1="8" x2="72" y2="72" gradientUnits="userSpaceOnUse">
<stop stop-color="#6236D6"/>
<stop offset="1" stop-color="#9D55C4"/>
</linearGradient>
</defs>
</svg>
