<svg width="80" height="80" viewBox="0 0 80 80" fill="none" xmlns="http://www.w3.org/2000/svg">
<path fill-rule="evenodd" clip-rule="evenodd" d="M13.0785 13.5589C16.187 10.225 20.6314 8.33325 25.9429 8.33325H54.057C59.3823 8.33325 63.827 10.2243 66.932 13.5599C70.0243 16.882 71.6637 21.5013 71.6637 26.7536V29.1406H8.33334V26.7536C8.33334 21.499 9.98204 16.88 13.0785 13.5589ZM18.4635 21.8359C18.4635 20.4552 19.5828 19.3359 20.9635 19.3359H21.1484C22.5291 19.3359 23.6484 20.4552 23.6484 21.8359C23.6484 23.2166 22.5291 24.3359 21.1484 24.3359H20.9635C19.5828 24.3359 18.4635 23.2166 18.4635 21.8359ZM26.7486 21.8359C26.7486 20.4552 27.8679 19.3359 29.2486 19.3359H29.4334C30.8141 19.3359 31.9334 20.4552 31.9334 21.8359C31.9334 23.2166 30.8141 24.3359 29.4334 24.3359H29.2486C27.8679 24.3359 26.7486 23.2166 26.7486 21.8359ZM35.0367 21.8359C35.0367 20.4552 36.156 19.3359 37.5367 19.3359H37.7217C39.1023 19.3359 40.2217 20.4552 40.2217 21.8359C40.2217 23.2166 39.1023 24.3359 37.7217 24.3359H37.5367C36.156 24.3359 35.0367 23.2166 35.0367 21.8359Z" fill="url(#paint0_linear_80_635)"/>
<path d="M8.33334 34.1406V53.243C8.33334 58.4956 9.97347 63.115 13.0668 66.437C16.1726 69.7723 20.6179 71.6636 25.9429 71.6636H54.054C59.3803 71.6636 63.826 69.7726 66.9313 66.437C70.0243 63.1146 71.6637 58.4953 71.6637 53.243V34.1406H8.33334Z" fill="url(#paint1_linear_80_635)"/>
<defs>
<linearGradient id="paint0_linear_80_635" x1="8" y1="5.5" x2="72" y2="29" gradientUnits="userSpaceOnUse">
<stop stop-color="#6036D6"/>
<stop offset="1" stop-color="#9D55C4"/>
</linearGradient>
<linearGradient id="paint1_linear_80_635" x1="8" y1="34" x2="72" y2="72" gradientUnits="userSpaceOnUse">
<stop stop-color="#6036D6"/>
<stop offset="1" stop-color="#9D55C4"/>
</linearGradient>
</defs>
</svg>
